<svg width="68" height="36" viewBox="0 0 68 36" fill="none" xmlns="http://www.w3.org/2000/svg">
<path d="M54.8299 10.7378L57.4503 31.1457L60.0707 10.7378H64.1021L60.2723 35.61H54.6283L50.7985 10.7378H54.8299Z" fill="#FB6400"/>
<path d="M54.7468 10.7121L57.367 31.1201L59.9873 10.7121H64.0185L60.1889 35.5844H54.5452L50.9171 10.7121H54.7468Z" fill="#FB6400"/>
<path d="M32.2398 24.6246H40.445V16.915C40.445 12.3043 38.331 10.4147 34.3538 10.4147C30.2333 10.4147 28.2985 12.3043 28.2985 16.9527V29.6132C28.2985 33.8459 30.7349 36.0001 34.3538 36.0001C37.9727 36.0001 40.445 34.1861 40.445 29.6132V27.6102H36.647V29.9911C36.647 31.6918 36.0379 32.8633 34.4255 32.8633C32.8131 32.8633 32.2398 31.6918 32.2398 29.9911V24.6246V24.6246ZM32.2398 16.0835C32.2398 14.6852 32.5981 13.2113 34.4255 13.2113C36.2529 13.2113 36.647 14.6474 36.647 16.0835V21.2611H32.2398V16.0835Z" fill="#FB6400"/>
<path d="M22.9117 21.5086C19.9378 18.7876 19.687 18.3719 19.687 16.3311C19.687 14.5927 19.8303 13.5345 21.2993 13.5345C22.7684 13.5345 22.9833 14.5927 22.9833 16.3311V18.6364H26.7813V14.8572C26.7813 11.9094 24.6315 10.3977 21.2277 10.3977C17.8955 10.3977 15.7457 11.5693 15.7099 16.2933C15.7099 17.0869 15.7099 17.0869 15.7099 16.7846C15.7099 18.2585 15.7099 20.6394 19.1854 23.7762L20.1886 24.6832C22.7684 26.9507 23.0192 27.2531 23.0192 29.9363C23.0192 31.5992 22.9117 32.8841 21.2635 32.8841C19.6154 32.8841 19.5079 31.5992 19.5079 30.8056V27.5932H15.5308V30.8811C15.5308 34.9249 18.0388 35.9453 21.2635 35.9453C24.524 35.9453 26.9963 34.9249 26.9963 29.7096V29.2939C27.0321 25.7036 26.3872 24.721 22.9117 21.5086Z" fill="#FB6400"/>
<path d="M45.7188 13.2933V10.7234H42.1354V35.7042H46.0055V18.3197C46.0055 16.9592 46.4355 16.0899 47.1522 15.5608C47.833 15.0695 48.693 14.8806 49.7681 14.8806V10.4589C47.7255 10.4967 46.8297 10.9124 45.7905 13.2177L45.7188 13.2933Z" fill="#FB6400"/>
<path d="M68 31.1229H63.6638V35.6958H68V31.1229Z" fill="#FB6400"/>
<path d="M10.1323 35.6958H14.0736V10.7151H10.1323V35.6958Z" fill="#FB6400"/>
<path d="M2.22155 10.733H0V14.0588H2.22155V35.7138H6.16301V14.0588H8.92203V10.733H6.16301V5.66886C6.16301 4.91301 6.30633 4.34613 6.66465 3.9682C7.02296 3.59028 7.5246 3.40132 8.24123 3.40132H8.95786V0H7.5246C5.76886 0 4.08478 0.377923 3.29649 1.20936C2.5082 2.04079 2.25738 3.25015 2.25738 5.02639V10.733H2.22155Z" fill="#FB6400"/>
<path d="M65.4839 10.3278C65.4839 10.5924 65.3045 10.7813 65.0533 10.7813C64.8022 10.7813 64.6228 10.5924 64.6228 10.3278C64.6228 10.0633 64.8022 9.8743 65.0533 9.8743C65.2686 9.8743 65.4839 10.0633 65.4839 10.3278ZM65.5557 10.3278C65.5557 10.0255 65.3404 9.79871 65.0533 9.79871C64.7663 9.79871 64.551 10.0255 64.551 10.3278C64.551 10.6302 64.7663 10.8569 65.0533 10.8569C65.3404 10.8947 65.5557 10.6302 65.5557 10.3278ZM65.2686 10.2144C65.2686 10.1011 65.1969 10.0255 65.0892 10.0255H64.8381V10.6302H64.9457V10.4034H65.0533L65.161 10.6302H65.2686L65.161 10.4034C65.2327 10.3656 65.2686 10.29 65.2686 10.2144ZM65.161 10.2144C65.161 10.29 65.1251 10.29 65.0533 10.29H64.9098V10.1011H65.0533C65.1251 10.1389 65.161 10.1389 65.161 10.2144Z" fill="#FB6400"/>
</svg>
